<?xml version="1.0" encoding="utf-8"?>
<!-- Generator: Adobe Illustrator 24.1.3, SVG Export Plug-In . SVG Version: 6.00 Build 0)  -->
<svg version="1.1" id="master-artboard" xmlns="http://www.w3.org/2000/svg" xmlns:xlink="http://www.w3.org/1999/xlink" x="0px"
	 y="0px" viewBox="0 0 1814 1250.9" style="enable-background:new 0 0 1814 1250.9;" xml:space="preserve">
<style type="text/css">
	.st0{opacity:0;fill:#FFFFFF;}
	.st1{opacity:0.3;fill:#D6D8E5;enable-background:new    ;}
	.st2{fill:#000099;}
	.st3{fill:#0838AF;}
	.st4{opacity:0.1;enable-background:new    ;}
	.st5{fill:#0660B2;}
	.st6{opacity:0.15;enable-background:new    ;}
	.st7{fill:#E9EAF2;}
	.st8{fill:#0642C6;}
	.st9{fill:#064CB2;}
	.st10{fill:#04339E;}
	.st11{fill:#FFCEA9;}
	.st12{fill:#030B54;}
	.st13{fill:#04697F;}
	.st14{fill:#F4F4F4;}
	.st15{fill:#3A2C6D;}
	.st16{fill:#BFBFBF;}
	.st17{fill:#E5E5E5;}
	.st18{fill:#560202;}
	.st19{fill:#EDEDED;}
	.st20{fill:#820303;}
	.st21{fill:#CC0700;}
</style>
<g>
	<rect id="ee-background" y="0" class="st0" width="1814" height="1250.9"/>
	<path class="st1" d="M830.1,1150.6l-147-85.2l147-84.4l147,84.4L830.1,1150.6z"/>
	<path class="st1" d="M1063.1,1014.5l-147-84.4l147-85.2l146.2,85.2L1063.1,1014.5z"/>
	<path class="st2" d="M1149.9,203l-147-84.4l147-85.2l147,85.2L1149.9,203z"/>
	<path class="st3" d="M1149.9,965.3l-147-84.4V118.6l147,84.4V965.3z"/>
	<path class="st4" d="M1149.4,965.1l-147-84.4V118.4l147,84.4V965.1z"/>
	<path class="st5" d="M1296.9,880.8l-147,84.4V203l147-84.4V880.8z"/>
	<path class="st6" d="M1297.3,881.9l-147,84.4V204l147-84.4V881.9z"/>
	<path class="st7" d="M929.4,584.5l-146.2-85.2l146.2-84.4l147,84.4L929.4,584.5z"/>
	<path class="st7" d="M929.4,1091.9l-146.2-84.4V499.3l146.2,85.2V1091.9z"/>
	<path class="st4" d="M929.4,1091.9l-146.2-84.4V499.3l146.2,85.2V1091.9z"/>
	<path class="st7" d="M1076.4,1007.5l-147,84.4V584.5l147-85.2V1007.5z"/>
	<path class="st6" d="M1076.4,1007.5l-147,84.4V584.5l147-85.2V1007.5z"/>
	<path class="st8" d="M695.7,986.4l-147-84.4l147-84.4L841.9,902L695.7,986.4z"/>
	<path class="st9" d="M698.9,1231.6l-147-84.4V904l147,84.4V1231.6z"/>
	<path class="st10" d="M841.9,1145.1l-146.2,84.4V986.4L841.9,902V1145.1z"/>
	<path id="_Контур_15" class="st11" d="M943.5,369.5c10.9,20.3,25,38.3,40.7,55.5c4.7,4.7,38.3-7.8,31.3-11.7
		s-28.9-34.4-39.9-54.7c-9.4-24.2-17.2-50-23.5-75.1c-7-25-13.3-61.8-18-79.7c-2.3-13.3-12.5-23.5-25.8-26.6
		c-11.7-3.1-20.3,0.8-18,14.9C893.5,218.6,913.8,318.7,943.5,369.5z"/>
	<path class="st12" d="M924,762c10.2,8.6,25.8,0.8,26.6,1.6c12.5,11.7,25,21.9,38.3,32.1c6.3,4.7,16.4,11.7,14.9,21.9
		c-3.1,18-31.3,12.5-42.2,7c-10.9-5.5-19.5-14.1-29.7-20.3c-7-4.7-14.1-7-15.6-15.6C916.9,783.1,922.4,762,924,762z"/>
	<path class="st13" d="M917.7,784.7c1.6,8.6,8.6,10.9,15.6,15.6c10.2,6.3,19.5,15.6,29.7,21.1c10.2,5.5,34.4,10.2,41.4-2.3
		c-3.9,17.2-31.3,11.7-42.2,6.3c-10.9-5.5-19.5-14.1-29.7-20.3c-7-4.7-14.1-7-15.6-15.6C916.9,787,917.7,785.5,917.7,784.7z"/>
	<path class="st12" d="M1030.3,701c10.2,8.6,28.9-0.8,29.7,0c10.9,10.9,22.7,21.9,34.4,31.3c6.3,5.5,16.4,11.7,14.9,21.9
		c-3.1,18-31.3,12.5-42.2,7c-10.9-5.5-19.5-14.1-29.7-20.3c-7-4.7-14.1-7-15.6-15.6C1022.5,715.9,1025.6,708.1,1030.3,701z"/>
	<path class="st13" d="M1022.5,722.1c1.6,8.6,8.6,10.9,15.6,15.6c10.2,6.3,19.5,15.6,29.7,21.1c10.2,5.5,34.4,10.2,41.4-2.3
		c-3.9,17.2-31.3,11.7-42.2,6.3c-10.9-5.5-19.5-14.1-29.7-20.3c-7-4.7-14.1-7-15.6-15.6C1022.5,724.5,1022.5,722.9,1022.5,722.1z"/>
	<path id="_Контур_16" class="st9" d="M784,426.6c-11.7,72.7,20.3,99.3,62.5,114.9c29.7,10.9,72.7,28.1,72.7,28.1
		s-0.8,15.6-0.8,51.6c0,31.3,3.9,146.2,3.9,146.2c10.2,5.5,21.9,5.5,32.1,0c0,0,17.2-87.6,20.3-127.4c4.7-53.9,13.3-89.1,10.2-100.9
		c-2.3-10.2-61-39.1-79.7-54.7l123.5,41.4c-2.3,13.3-3.1,26.6-3.1,40.7c0.8,42.2,3.1,135.3,3.1,135.3s17.2,12.5,31.3,0
		c0,0,31.3-182.9,27.4-207.2c-3.9-22.7-111.8-69.6-131.3-86c-7-5.5-15.6-7.8-24.2-6.3L784,426.6z"/>
	<path id="_Контур_17" class="st14" d="M1079.5,457.1l-82.9-47.7c-1.6-0.8-3.1-0.8-4.7,0l-144.6,83.7l84.4,49.3L1079.5,457.1z
		"/>
	<path class="st15" d="M927.9,525.1l-6.3,3.9c-0.8,0-0.8,0.8,0,0.8l6.3,3.1c0.8,0,1.6,0,2.3,0l6.3-3.9c0.8,0,0.8-0.8,0-0.8l-6.3-3.1
		C929.4,524.3,928.6,524.3,927.9,525.1z"/>
	<path class="st15" d="M937.2,519.6l-6.3,3.9c-0.8,0,0,0.8,0,0.8l6.3,3.1c0.8,0,1.6,0,2.3,0l6.3-3.9c0.8,0,0.8-0.8,0-0.8l-6.3-3.1
		C938.8,518.9,938,518.9,937.2,519.6z"/>
	<path class="st15" d="M945.8,514.2l-6.3,3.9c-0.8,0-0.8,0.8,0,0.8l6.3,3.1c0.8,0,1.6,0,2.3,0l6.3-3.9c0.8,0,0.8-0.8,0-0.8l-6.3-3.1
		C947.4,514.2,946.6,514.2,945.8,514.2z"/>
	<path class="st15" d="M955.2,509.5l-6.3,3.9c-0.8,0-0.8,0.8,0,0.8l6.3,3.1c0.8,0,1.6,0,2.3,0l6.3-3.9c0.8,0,0-0.8,0-0.8l-6.3-3.1
		C956.8,508.7,955.2,508.7,955.2,509.5z"/>
	<path class="st15" d="M963.8,504l-6.3,3.9c-0.8,0-0.8,0.8,0,0.8l6.3,3.1c0.8,0,1.6,0,2.3,0l6.3-3.9c0.8,0,0.8-0.8,0-0.8l-6.3-3.1
		C965.4,503.2,964.6,503.2,963.8,504z"/>
	<path class="st15" d="M973.2,498.5l-6.3,3.9c-0.8,0-0.8,0.8,0,0.8l6.3,3.1c0.8,0,1.6,0,2.3,0l6.3-3.9c0.8,0,0.8-0.8,0-0.8l-6.3-3.1
		C974,498.5,973.2,498.5,973.2,498.5z"/>
	<path class="st15" d="M981.8,493.8l-6.3,3.9c-0.8,0-0.8,0.8,0,0.8l6.3,3.1c0.8,0,1.6,0,2.3,0l6.3-3.9c0.8,0,0.8-0.8,0-0.8l-6.3-3.1
		C983.4,493.1,982.6,493.1,981.8,493.8z"/>
	<path class="st15" d="M990.4,488.4l-6.3,3.9c-0.8,0-0.8,0.8,0,0.8l6.3,3.1c0.8,0,1.6,0,2.3,0l6.3-3.9c0.8,0,0.8-0.8,0-0.8l-6.3-3.1
		C992,488.4,991.2,488.4,990.4,488.4z"/>
	<path class="st15" d="M999.8,482.9l-6.3,3.9c-0.8,0,0,0.8,0,0.8l6.3,3.1c0.8,0,1.6,0,2.3,0l6.3-3.9c0.8,0,0-0.8,0-0.8l-6.3-3.1
		C1000.6,482.9,1000.6,482.9,999.8,482.9z"/>
	<path class="st15" d="M1008.4,478.2l-6.3,3.1c-0.8,0-0.8,0.8,0,0.8l6.3,3.1c0.8,0,1.6,0,2.3,0l6.3-3.9c0.8,0,0-0.8,0-0.8l-6.3-3.1
		C1010,477.4,1009.2,477.4,1008.4,478.2z"/>
	<path class="st15" d="M1017.8,472.7l-6.3,3.9c-0.8,0-0.8,0.8,0,0.8l6.3,3.1c0.8,0,1.6,0,2.3,0l6.3-3.1c0.8,0,0.8-0.8,0-0.8
		l-6.3-3.1C1018.6,472.7,1017.8,472.7,1017.8,472.7z"/>
	<path class="st15" d="M1026.4,468l-6.3,3.9c-0.8,0-0.8,0.8,0,0.8l6.3,3.1c0.8,0,1.6,0,2.3,0l6.3-3.9c0.8,0,0.8-0.8,0-0.8l-6.3-3.1
		C1027.9,467.3,1027.2,467.3,1026.4,468z"/>
	<path class="st15" d="M1035,462.6l-6.3,3.9c-0.8,0-0.8,0.8,0,0.8l6.3,3.1c0.8,0,1.6,0,2.3,0l6.3-3.9c0.8,0,0.8-0.8,0-0.8l-6.3-3.1
		C1036.5,462.6,1035.8,462.6,1035,462.6z"/>
	<path class="st15" d="M1049.1,454.7l-10.9,6.3c-0.8,0-0.8,0.8,0,0.8l6.3,3.1c0.8,0,1.6,0,2.3,0l10.2-6.3c0.8,0,0.8-0.8,0-0.8
		l-6.3-3.1C1049.8,454.7,1049.1,454.7,1049.1,454.7z"/>
	<path class="st15" d="M932.6,511.8l-6.3,3.9c-0.8,0-0.8,0.8,0,0.8l6.3,3.1c0.8,0,1.6,0,2.3,0l6.3-3.9c0.8,0,0.8-0.8,0-0.8l-6.3-3.1
		C934.1,511.8,933.3,511.8,932.6,511.8z"/>
	<path class="st15" d="M941.9,506.3l-6.3,3.9c-0.8,0-0.8,0.8,0,0.8l6.3,3.1c0.8,0,1.6,0,2.3,0l6.3-3.9c0.8,0,0.8-0.8,0-0.8l-6.3-3.1
		C942.7,506.3,941.9,506.3,941.9,506.3z"/>
	<path class="st15" d="M950.5,501.7l-6.3,3.9c-0.8,0-0.8,0.8,0,0.8l6.3,3.1c0.8,0,1.6,0,2.3,0l6.3-3.9c0.8,0,0-0.8,0-0.8l-6.3-3.1
		C952.1,500.9,951.3,500.9,950.5,501.7z"/>
	<path class="st15" d="M959.9,496.2l-6.3,3.9c-0.8,0-0.8,0.8,0,0.8l6.3,3.1c0.8,0,1.6,0,2.3,0l6.3-3.9c0.8,0,0.8-0.8,0-0.8l-6.3-3.1
		C960.7,496.2,959.9,496.2,959.9,496.2z"/>
	<path class="st15" d="M968.5,491.5l-6.3,3.9c-0.8,0,0,0.8,0,0.8l6.3,3.1c0.8,0,1.6,0,2.3,0l6.3-3.9c0.8,0,0.8-0.8,0-0.8l-6.3-3.1
		C970.1,490.7,969.3,490.7,968.5,491.5z"/>
	<path class="st15" d="M977.1,486l-6.3,3.1c-0.8,0-0.8,0.8,0,0.8l6.3,3.1c0.8,0,1.6,0,2.3,0l6.3-3.9c0.8,0,0.8-0.8,0-0.8l-6.3-3.1
		C978.7,485.2,977.9,485.2,977.1,486z"/>
	<path class="st15" d="M986.5,480.5l-6.3,3.9c-0.8,0-0.8,0.8,0,0.8l6.3,3.1c0.8,0,1.6,0,2.3,0l6.3-3.9c0.8,0,0.8-0.8,0-0.8l-6.3-3.1
		C987.3,480.5,986.5,480.5,986.5,480.5z"/>
	<path class="st15" d="M995.1,475.9l-6.3,3.9c-0.8,0,0,0.8,0,0.8l6.3,3.1c0.8,0,1.6,0,2.3,0l6.3-3.9c0.8,0,0.8-0.8,0-0.8l-6.3-3.1
		C996.7,475.9,995.9,475.9,995.1,475.9z"/>
	<path class="st15" d="M1004.5,470.4l-6.3,3.9c-0.8,0-0.8,0.8,0,0.8l6.3,3.1c0.8,0,1.6,0,2.3,0l6.3-3.9c0.8,0,0.8-0.8,0-0.8
		l-6.3-3.1C1005.3,470.4,1004.5,470.4,1004.5,470.4z"/>
	<path class="st15" d="M1013.1,465.7l-6.3,3.1c-0.8,0-0.8,0.8,0,0.8l6.3,3.1c0.8,0,1.6,0,2.3,0l6.3-3.9c0.8,0,0.8-0.8,0-0.8
		l-6.3-3.1C1014.7,464.9,1013.9,464.9,1013.1,465.7z"/>
	<path class="st15" d="M1022.5,460.2l-6.3,3.9c-0.8,0,0,0.8,0,0.8l6.3,3.1c0.8,0,1.6,0,2.3,0l6.3-3.9c0.8,0,0.8-0.8,0-0.8l-6.3-3.1
		C1023.3,460.2,1022.5,460.2,1022.5,460.2z"/>
	<path class="st15" d="M1031.1,454.7l-6.3,3.9c-0.8,0-0.8,0.8,0,0.8l6.3,3.1c0.8,0,1.6,0,2.3,0l6.3-3.9c0.8,0,0.8-0.8,0-0.8
		l-6.3-3.1C1032.6,454.7,1031.9,454.7,1031.1,454.7z"/>
	<path class="st15" d="M924,517.3l-10.9,6.3c-0.8,0,0,0.8,0,0.8l6.3,3.1c0.8,0,1.6,0,2.3,0l10.9-6.3c0.8,0,0-0.8,0-0.8l-6.3-3.1
		C924.7,516.5,924.7,516.5,924,517.3z"/>
	<path class="st15" d="M1048.3,454.7l-6.3,3.9c-0.8,0-1.6,0-1.6,0l-7-3.9c0,0-0.8-0.8,0-0.8l0,0l0,0c0.8,0,0.8-0.8,0-0.8l-7-3.9
		c-0.8,0-0.8-0.8,0-0.8l3.9-2.3c0.8,0,1.6,0,1.6,0l6.3,3.9l1.6,0.8l0.8,0.8l0.8,0.8L1048.3,454.7
		C1049.1,454,1049.1,454.7,1048.3,454.7z"/>
	<path class="st15" d="M893.5,504.8l-6.3,3.1c-0.8,0-0.8,0.8,0,0.8l6.3,3.1c0.8,0,1.6,0,2.3,0l6.3-3.9c0.8,0,0.8-0.8,0-0.8l-6.3-3.1
		C895,504,894.2,504,893.5,504.8z"/>
	<path class="st15" d="M902.8,499.3l-6.3,3.9c-0.8,0-0.8,0.8,0,0.8l6.3,3.1c0.8,0,1.6,0,2.3,0l6.3-3.9c0.8,0,0.8-0.8,0-0.8l-6.3-3.1
		C903.6,499.3,902.8,499.3,902.8,499.3z"/>
	<path class="st15" d="M911.4,493.8l-6.3,3.9c-0.8,0-0.8,0.8,0,0.8l6.3,3.1c0.8,0,1.6,0,2.3,0l6.3-3.9c0.8,0,0.8-0.8,0-0.8l-6.3-3.1
		C913,493.8,912.2,493.8,911.4,493.8z"/>
	<path class="st15" d="M987.3,450.1L981,454c-0.8,0-0.8,0.8,0,0.8l6.3,3.1c0.8,0,1.6,0,2.3,0l6.3-3.9c0.8,0,0.8-0.8,0-0.8l-6.3-3.1
		C988.8,450.1,988.1,450.1,987.3,450.1z"/>
	<path class="st15" d="M995.9,445.4l-6.3,3.9c-0.8,0-0.8,0.8,0,0.8l6.3,3.1c0.8,0,1.6,0,2.3,0l6.3-3.9c0.8,0,0.8-0.8,0-0.8l-6.3-3.1
		C997.4,445.4,996.7,445.4,995.9,445.4z"/>
	<path class="st15" d="M1005.3,439.9l-6.3,3.9c-0.8,0-0.8,0.8,0,0.8l6.3,3.1c0.8,0,1.6,0,2.3,0l6.3-3.9c0.8,0,0.8-0.8,0-0.8
		l-6.3-3.1C1006.1,439.9,1005.3,439.9,1005.3,439.9z"/>
	<path class="st15" d="M1013.9,435.2l-6.3,3.9c-0.8,0-0.8,0.8,0,0.8l6.3,3.1c0.8,0,1.6,0,2.3,0l6.3-3.9c0.8,0,0-0.8,0-0.8l-6.3-3.1
		C1015.4,434.4,1014.7,434.4,1013.9,435.2z"/>
	<path class="st15" d="M922.4,487.6l-8.6,4.7c-0.8,0,0,0.8,0,0.8l6.3,3.1c0.8,0,1.6,0,2.3,0l8.6-4.7c0.8,0,0.8-0.8,0-0.8l-6.3-3.1
		C924,487.6,923.2,487.6,922.4,487.6z"/>
	<path class="st15" d="M978.7,455.5l-8.6,4.7c-0.8,0-0.8,0.8,0,0.8l6.3,3.1c0.8,0,1.6,0,2.3,0l8.6-4.7c0.8,0,0.8-0.8,0-0.8l-6.3-3.1
		C979.5,455.5,978.7,455.5,978.7,455.5z"/>
	<path class="st15" d="M967,462.6l-42.2,24.2c-0.8,0-0.8,0.8,0,0.8l6.3,3.1c0.8,0,1.6,0,2.3,0l42.2-24.2c0.8,0,0.8-0.8,0-0.8
		l-6.3-3.1C968.5,461.8,967.7,461.8,967,462.6z"/>
	<path class="st15" d="M926.3,505.6l-6.3,3.9c-0.8,0-0.8,0.8,0,0.8l6.3,3.1c0.8,0,1.6,0,2.3,0l6.3-3.9c0.8,0,0.8-0.8,0-0.8l-6.3-3.1
		C927.9,504.8,927.1,504.8,926.3,505.6z"/>
	<path class="st15" d="M935.7,500.1l-6.3,3.9c-0.8,0-0.8,0.8,0,0.8l6.3,3.1c0.8,0,1.6,0,2.3,0l6.3-3.9c0.8,0,0.8-0.8,0-0.8l-7-3.1
		C936.5,500.1,935.7,500.1,935.7,500.1z"/>
	<path class="st15" d="M944.3,495.4l-6.3,3.9c-0.8,0,0,0.8,0,0.8l6.3,3.1c0.8,0,1.6,0,2.3,0l6.3-3.9c0.8,0,0.8-0.8,0-0.8l-6.3-3.1
		C945.8,494.6,945.1,494.6,944.3,495.4z"/>
	<path class="st15" d="M953.7,489.9l-6.3,3.9c-0.8,0,0,0.8,0,0.8l6.3,3.1c0.8,0,1.6,0,2.3,0l6.3-3.9c0.8,0,0.8-0.8,0-0.8l-7-3.1
		C954.4,489.9,953.7,489.9,953.7,489.9z"/>
	<path class="st15" d="M962.3,485.2l-6.3,3.9c-0.8,0,0,0.8,0,0.8l6.3,3.1c0.8,0,1.6,0,2.3,0l6.3-3.9c0.8,0,0.8-0.8,0-0.8l-6.3-3.1
		C963.8,484.5,963,484.5,962.3,485.2z"/>
	<path class="st15" d="M970.9,479.8l-6.3,3.9c-0.8,0,0,0.8,0,0.8l6.3,3.1c0.8,0,1.6,0,2.3,0l5.5-3.1c0.8,0,0.8-0.8,0-0.8l-6.3-3.1
		C972.4,479.8,971.6,479.8,970.9,479.8z"/>
	<path class="st15" d="M980.2,474.3l-6.3,3.9c-0.8,0,0,0.8,0,0.8l6.3,3.1c0.8,0,1.6,0,2.3,0l6.3-3.9c0.8,0,0-0.8,0-0.8l-6.3-3.1
		C981,474.3,981,474.3,980.2,474.3z"/>
	<path class="st15" d="M988.8,469.6l-6.3,3.9c-0.8,0,0,0.8,0,0.8l6.3,3.1c0.8,0,1.6,0,2.3,0l6.3-3.9c0.8,0,0-0.8,0-0.8l-6.3-3.1
		C990.4,468.8,989.6,468.8,988.8,469.6z"/>
	<path class="st15" d="M998.2,464.1L992,468c-0.8,0,0,0.8,0,0.8l6.3,3.1c0.8,0,1.6,0,2.3,0l6.3-3.9c0.8,0,0-0.8,0-0.8l-6.3-3.1
		C999,464.1,998.2,464.1,998.2,464.1z"/>
	<path class="st15" d="M1006.8,459.4l-6.3,3.9c-0.8,0-0.8,0.8,0,0.8l6.3,3.1c0.8,0,1.6,0,2.3,0l6.3-3.9c0.8,0,0-0.8,0-0.8l-6.3-3.1
		C1008.4,458.7,1007.6,458.7,1006.8,459.4z"/>
	<path class="st15" d="M1015.4,454l-6.3,3.9c-0.8,0-0.8,0.8,0,0.8l6.3,3.1c0.8,0,1.6,0,2.3,0l6.3-3.9c0.8,0,0-0.8,0-0.8l-6.3-2.3
		C1017,454,1016.2,454,1015.4,454z"/>
	<path class="st15" d="M1024.8,448.5l-6.3,3.9c-0.8,0-0.8,0.8,0,0.8l6.3,3.1c0.8,0,1.6,0,2.3,0l6.3-3.9c0.8,0,0-0.8,0-0.8l-6.3-3.1
		C1026.4,448.5,1025.6,448.5,1024.8,448.5z"/>
	<path class="st15" d="M917.7,510.3l-13.3,7.8c-0.8,0-0.8,0.8,0,0.8l6.3,3.1c0.8,0,1.6,0,2.3,0l13.3-7.8c0.8,0,0.8-0.8,0-0.8
		l-6.3-3.1C919.3,510.3,918.5,510.3,917.7,510.3z"/>
	<path class="st15" d="M913.8,503.2l-6.3,3.9c-0.8,0-0.8,0.8,0,0.8l6.3,3.1c0.8,0,1.6,0,2.3,0l6.3-3.9c0.8,0,0.8-0.8,0-0.8l-6.3-3.1
		C914.6,502.4,913.8,502.4,913.8,503.2z"/>
	<path class="st15" d="M922.4,497.7l-6.3,3.9c-0.8,0-0.8,0.8,0,0.8l6.3,3.1c0.8,0,1.6,0,2.3,0l6.3-3.9c0.8,0,0.8-0.8,0-0.8l-7-3.1
		C924,497.7,923.2,497.7,922.4,497.7z"/>
	<path class="st15" d="M931.8,493.1l-6.3,3.9c-0.8,0-0.8,0.8,0,0.8l6.3,3.9c0.8,0,1.6,0,2.3,0l6.3-3.9c0.8,0,0.8-0.8,0-0.8l-6.3-3.1
		C933.3,492.3,932.6,492.3,931.8,493.1z"/>
	<path class="st15" d="M940.4,487.6l-6.3,3.9c-0.8,0-0.8,0.8,0,0.8l6.3,3.1c0.8,0,1.6,0,2.3,0l6.3-3.9c0.8,0,0.8-0.8,0-0.8l-6.3-3.1
		C941.9,487.6,941.2,487.6,940.4,487.6z"/>
	<path class="st15" d="M949,482.1l-6.3,3.9c-0.8,0-0.8,0.8,0,0.8l6.3,3.1c0.8,0,1.6,0,2.3,0l6.3-3.9c0.8,0,0.8-0.8,0-0.8l-6.3-3.1
		C950.5,482.1,949.8,482.1,949,482.1z"/>
	<path class="st15" d="M958.4,477.4l-6.3,3.9c-0.8,0-0.8,0.8,0,0.8l6.3,3.1c0.8,0,1.6,0,2.3,0l6.3-3.9c0.8,0,0.8-0.8,0-0.8l-6.3-3.1
		C959.1,476.6,958.4,476.6,958.4,477.4z"/>
	<path class="st15" d="M967,471.9l-6.3,3.9c-0.8,0-0.8,0.8,0,0.8l6.3,3.1c0.8,0,1.6,0,2.3,0l6.3-3.9c0.8,0,0.8-0.8,0-0.8l-6.3-3.1
		C968.5,471.9,967.7,471.9,967,471.9z"/>
	<path class="st15" d="M975.6,467.3l-6.3,3.9c-0.8,0-0.8,0.8,0,0.8l6.3,3.1c0.8,0,1.6,0,2.3,0l6.3-3.9c0.8,0,0.8-0.8,0-0.8l-6.3-3.1
		C977.1,466.5,976.3,466.5,975.6,467.3z"/>
	<path class="st15" d="M984.9,461.8l-6.3,3.9c-0.8,0-0.8,0.8,0,0.8l6.3,3.1c0.8,0,1.6,0,2.3,0l6.3-3.9c0.8,0,0.8-0.8,0-0.8l-7-3.1
		C986.5,461.8,985.7,461.8,984.9,461.8z"/>
	<path class="st15" d="M994.3,456.3l-6.3,3.9c-0.8,0-0.8,0.8,0,0.8l6.3,3.1c0.8,0,1.6,0,2.3,0l5.5-3.1c0.8,0,0.8-0.8,0-0.8l-6.3-3.1
		C995.1,456.3,994.3,456.3,994.3,456.3z"/>
	<path class="st15" d="M1002.9,451.6l-6.3,3.9c-0.8,0-0.8,0.8,0,0.8l6.3,3.1c0.8,0,1.6,0,2.3,0l6.3-3.9c0.8,0,0.8-0.8,0-0.8
		l-6.3-3.1C1003.7,451.6,1002.9,451.6,1002.9,451.6z"/>
	<path class="st15" d="M1022.5,439.9l-17.2,10.2c-0.8,0-0.8,0.8,0,0.8l6.3,3.1c0.8,0,1.6,0,2.3,0l17.2-10.2c0.8,0,0.8-0.8,0-0.8
		l-6.3-3.1C1024,439.9,1023.3,439.9,1022.5,439.9z"/>
	<path class="st15" d="M904.4,507.9l-8.6,4.7c-0.8,0-0.8,0.8,0,0.8l6.3,3.1c0.8,0,1.6,0,2.3,0l8.6-4.7c0.8,0,0.8-0.8,0-0.8l-6.3-3.1
		C906,507.9,905.2,507.9,904.4,507.9z"/>
	<path class="st15" d="M1057.7,460.2L931,533.7c-0.8,0-0.8,0.8,0,0.8l3.1,1.6c0.8,0,1.6,0,2.3,0l126.7-73.5c0.8,0,0.8-0.8,0-0.8
		l-3.1-1.6C1058.4,460.2,1058.4,460.2,1057.7,460.2z"/>
	<path id="_Контур_18" class="st16" d="M909.1,463.3l0.8,0.8l21.9,12.5l39.1-22.7h0.8L949,440.7L909.1,463.3z"/>
	<path id="_Контур_19" class="st17" d="M909.9,464.1l21.9,12.5l39.1-22.7L949,441.5L909.9,464.1z"/>
	<path id="_Контур_20" class="st17" d="M847.3,493.1v2.3c0,3.1,1.6,5.5,3.9,7l77.4,44.6c0.8,0,2.3,0,3.1,0
		c1.6,0,3.1,0,3.9-0.8l139.2-80.5c2.3-1.6,3.9-3.9,3.9-7v-2.3l-147,86L847.3,493.1z"/>
	<path id="_Контур_21" class="st14" d="M934.1,543.1c2.3,0.8,5.5,0.8,7.8-0.8l139.2-80.5c2.3-1.6,3.9-3.9,4.7-6.3l15.6-90.7
		c0-0.8,0-0.8,0-1.6c0-2.3-0.8-4.7-2.3-7l-144.6,83.7c-1.6,0.8-3.1,3.1-3.1,4.7L934.1,543.1z"/>
	<path id="_Контур_22" class="st17" d="M931.8,542.3l0.8,0.8l1.6,0.8l16.4-98.5c0-2.3,1.6-3.9,3.1-4.7l144.6-83.7
		c-0.8-0.8-1.6-0.8-2.3-1.6l-143.9,83.7c-1.6,0.8-3.1,3.1-3.1,4.7L931.8,542.3z"/>
	<path id="_Контур_23" class="st11" d="M827,153.7c0,0,1.6,34.4,0.8,37.5s-15.6,13.3-20.3,17.2c-4.7,3.9,23.5,31.3,37.5,37.5
		c14.1,6.3,57.1-10.2,57.9-31.3c0.8-21.1-7.8-39.1-14.1-40.7C882.5,172.5,827,153.7,827,153.7z"/>
	<path id="_Контур_24" class="st14" d="M823.1,197.5c0,0,25,37.5,60.2,40.7c10.9-10.9,11.7-49.3-3.1-61.8
		c0,0,14.1-10.9,23.5-9.4c10.2,6.3,18,15.6,21.9,27.4c8.6,25.8,13.3,52.4,12.5,79.7c-0.8,36.7,0,129,0,129
		c-3.9,21.9-17.2,41.4-36.7,53.2c-25,14.1-54.7,18-82.9,11.7c-14.1-3.1-25.8-13.3-30.5-26.6c1.6-25.8,11.7-78.2,7.8-111
		c-3.9-32.8-10.9-56.3-13.3-82.1s3.1-25.8,16.4-35.2C806.7,207.7,814.5,202.2,823.1,197.5z"/>
	<path id="_Контур_25" class="st11" d="M863.8,494.6c-6.3-3.9-12.5-7.8-19.5-10.9c-6.3-2.3-11.7-5.5-16.4-10.2
		c-6.3-6.3-16.4-28.9-23.5-50.8c-7-25-10.2-50.8-8.6-77.4c3.1-31.3,14.1-75.1,17.2-92.3s-3.1-25-10.9-31.3
		c-10.2-7.8-23.5-4.7-30.5,21.1c-9.4,34.4-14.1,70.4-15.6,106.3c0,26.6,3.9,53.2,11.7,78.2c7.8,21.9,17.2,42.2,29.7,61.8
		c3.1,5.5,4.7,10.9,10.2,22.7c4.7,11.7,13.3,22.7,22.7,30.5c8.6,6.3,13.3,7,14.9,6.3s2.3-4.7-1.6-7.8c-6.3-4.7-11.7-10.9-15.6-17.2
		c0,0,7.8,7.8,12.5,11.7c4.7,3.9,9.4,7,14.9,9.4c5.5,2.3,12.5-2.3,8.6-5.5c-3.9-3.1-7-5.5-14.9-11.7c-3.9-3.1-7.8-7-10.9-10.9
		c5.5,3.9,10.9,7.8,16.4,10.9c4.7,2.3,9.4,3.9,14.9,3.9c2.3,0,6.3-3.9,0.8-7.8c-7-3.9-13.3-7.8-19.5-13.3c-5.5-5.5-8.6-10.2-7-10.2
		s4.7,3.1,10.9,5.5s13.3,0,14.1-3.1C869.2,499.3,870,497.7,863.8,494.6z"/>
	<path id="_Контур_26" class="st11" d="M905.2,102.9L905.2,102.9c-3.9-26.6-23.5-46.9-50.8-45.3c-29.7,1.6-51.6,26.6-50,56.3
		l0,0c0.8,16.4,9.4,31.3,23.5,40.7c0.8,3.9,2.3,7.8,3.9,11.7c9.4,11.7,39.1,18.8,47.7,17.2c10.2-0.8,18.8-7.8,21.9-18
		C910.7,143.6,907.5,115.4,905.2,102.9z"/>
	<path class="st18" d="M827,153.7L827,153.7l2.3-23.5c0,0-18.8-49.3,25.8-39.9c29.7,6.3,37.5,8.6,46.1-10.9s-21.9-37.5-60.2-32.8
		c-27.4,3.1-47.7,25.8-46.9,53.2C795,114.6,798.9,144.4,827,153.7z"/>
	<path class="st19" d="M749.6,288.2c0,0,25,24.2,53.9,17.2c3.9-3.1,14.1-60.2,14.1-60.2s0-32.1-24.2-31.3
		C769.2,214.7,749.6,288.2,749.6,288.2z"/>
	<path class="st19" d="M935.7,240.5c7,0,13.3-3.1,18-7.8c-0.8-12.5-17.2-61.8-50.8-64.9c9.4,6.3,16.4,14.9,20.3,25
		C929.4,208.5,933.3,224.1,935.7,240.5z"/>
	<path class="st18" d="M88.3-161"/>
	<path class="st20" d="M925.7,797.2"/>
	<path class="st20" d="M1624.9,840.8"/>
	<path d="M893.1,231.5L893.1,231.5"/>
	<path d="M997.7,327.8L997.7,327.8"/>
	<path d="M615.2,883.8L615.2,883.8"/>
	<path class="st21" d="M-70.1,795.7"/>
</g>
</svg>
