<?xml version="1.0" encoding="utf-8"?>
<!-- Generator: Adobe Illustrator 24.1.3, SVG Export Plug-In . SVG Version: 6.00 Build 0)  -->
<svg version="1.1" id="master-artboard" xmlns="http://www.w3.org/2000/svg" xmlns:xlink="http://www.w3.org/1999/xlink" x="0px"
	 y="0px" viewBox="0 0 1472.4 1803.7" style="enable-background:new 0 0 1472.4 1803.7;" xml:space="preserve">
<style type="text/css">
	.st0{opacity:0.4;fill:#D6D8E5;enable-background:new    ;}
	.st1{fill:#B1B4C4;}
	.st2{fill:#FAFBFF;}
	.st3{fill:#E9EAF2;}
	.st4{fill:#00416D;}
	.st5{fill:#FFCEA9;}
	.st6{fill:#F4F4F4;}
	.st7{fill:#00276D;}
	.st8{fill:#64C4FF;}
	.st9{fill:#0066CC;}
	.st10{fill:#EDEDED;}
	.st11{fill:#CD0E00;}
	.st12{fill:#6E0400;}
	.st13{fill:#A1A5B5;}
	.st14{opacity:0.1;fill:#3E7EFF;enable-background:new    ;}
	.st15{fill:#D6D8E5;}
	.st16{opacity:0.1;enable-background:new    ;}
	.st17{fill:#095BAD;}
	.st18{fill:#052A6B;}
	.st19{fill:#2B2A30;}
	.st20{fill:#4B79BC;}
	.st21{fill:#63A2E0;}
</style>
<path class="st0" d="M623.8,1643.8L21.9,1296.7l826.8-477.2l601.9,347.1L623.8,1643.8z"/>
<path class="st1" d="M1452.4,1142.9L870.6,807.3L63.8,1273l-20.1-11.6v23.1l601.9,347.1l826.8-477.2v-22.5L1452.4,1142.9z"/>
<path class="st2" d="M645.6,1609.2L43.8,1261.4l826.8-477.2l601.9,347.7L645.6,1609.2z"/>
<path class="st3" d="M1294.9,1168.4L812.2,890l48-27.4l482.1,278.4L1294.9,1168.4z"/>
<path class="st3" d="M1243.9,1198.2l-482.7-279l24.3-13.4l482.1,278.4L1243.9,1198.2z"/>
<path class="st3" d="M1204.3,1220.7L721.6,942.3l24.3-14l482.1,278.4L1204.3,1220.7z"/>
<path class="st3" d="M1164.8,1243.2L682.7,964.8l23.7-13.4l482.7,278.4L1164.8,1243.2z"/>
<path class="st3" d="M876,1410.4l-482.7-278.4l48-28l482.1,279L876,1410.4z"/>
<path class="st3" d="M792.2,1420.7l-449.9-259.6l24.3-14l449.3,259.6L792.2,1420.7z"/>
<path class="st3" d="M743.5,1438.3l-440.8-254.1l24.3-14l440.2,254.1L743.5,1438.3z"/>
<path class="st3" d="M635.9,1421.9l-372.1-215.2l23.7-14l372.1,215.2L635.9,1421.9z"/>
<path class="st3" d="M632.3,1149.6l-135-77.8l135-77.8l134.4,77.8L632.3,1149.6z"/>
<path class="st3" d="M806.1,1249.9l-134.4-77.8l134.4-77.8l134.4,77.8L806.1,1249.9z"/>
<path class="st3" d="M980,1350.2l-134.4-77.8l134.4-77.8l134.4,77.8L980,1350.2z"/>
<g id="Girl_8">
	<path class="st0" d="M1391.6,873.6c0,44-61.8,79.6-138,79.6l0,0c-76.2,0-138-35.7-138-79.6l0,0c0-44,61.8-79.6,138-79.6
		C1329.8,793.9,1391.6,829.6,1391.6,873.6z"/>
	<path id="_Контур_27" class="st4" d="M1247.5,128.8c5.5-9.1,48-14.6,61.4,21.3c5.5,13.4,4.3,48,9.1,69.9
		c4.9,21.9,14.6,34,18.2,51.7c3.6,17.6-2.4,47.4-45,52.3c-42.6,4.9-75.4-9.7-85.7-23.1c-10.3-13.4-10.3-42.6,0-57.8
		s18.2-28,18.2-48.6L1247.5,128.8z"/>
	<path class="st5" d="M1197,279c0,0-9.7,71.1,9.1,121s14-12.8,14-12.8l-4.9-15.2c0,0-3.6-57.8-2.4-71.7c1.2-14,1.2-26.1,2.4-27.4
		c1.2-1.2-3.6-3.6-5.5-3.6S1197,279,1197,279z"/>
	<path id="_Контур_28" class="st4" d="M1275.5,122.8c0,0-31.6-9.1-51.1,7.9c-12.8,12.2-18.2,30.4-13.4,47.4
		c2.4,9.7,7.9,23.7,15.8,24.3C1234.7,203,1275.5,122.8,1275.5,122.8z"/>
	<path id="_Контур_29" class="st5" d="M1287.6,209.7c0,0-1.8,35.3-1.2,38.3c0.6,3,14,4.9,17.6,8.5c3.6,3.6-19.5,38.9-31,44.4
		c-11.6,5.5-48-8.5-50.5-26.1c-2.4-16.4,10.3-29.2,15.2-34c3,0,6.7,0,9.7,0l1.2-17C1264.5,217.6,1287.6,209.7,1287.6,209.7z"/>
	<path id="_Контур_30" class="st6" d="M1292.5,251c9.7,1.8,21.3,6.7,23.1,12.2c4.3,19.5,3,40.1-3,59
		c-8.5,23.1-14.6,37.1-19.5,47.4c0,0-43.2,18.2-77.8-3c0,0-2.4-24.3-2.4-37.7c-32.2-28-4.9-62.6,22.5-89.4c3,0,6.7,0,9.7,0
		c0,0-24.3,28.6-7.3,45C1273.6,273.5,1280.9,257.7,1292.5,251z"/>
	<path id="_Контур_31" class="st5" d="M1221.4,165.9L1221.4,165.9c3.6-23.1,20.1-40.1,43.8-38.9c24.9,1.2,44.4,22.5,43.2,47.4
		c-0.6,14.6-8.5,28-20.1,35.9c-0.6,3.6-1.8,6.7-3.6,9.7c-8.5,9.7-30.4,15.8-37.7,15.8c-6.1,0-11.6-5.5-17.6-15.8
		C1215.9,199.4,1219.5,176.9,1221.4,165.9z"/>
	<path class="st4" d="M1271.8,127.6c16.4,3,29.8,7.9,34.7,23.7c3,10.9,7.3,32.2,3,41.3l-2.4,6.7l-20.1,10.3c0,0-9.1-7.9-6.1-30.4
		c0-3-1.2-6.1-3-8.5c-1.2-2.4-2.4-4.3-3-6.7c-2.4-6.1-6.7-10.9-12.8-14c-15.2-8.5-36.5-1.2-39.5,1.8
		C1231.7,133.1,1251.8,122.8,1271.8,127.6z"/>
	<path id="_Контур_32" class="st5" d="M1316.2,416.4c3.6-23.1,10.9-38.3,7.3-51.1c-7.3-25.5-16.4-50.5-28-74.8
		c-7.3-14.6-4.9-24.3,2.4-29.8c8.5-6.1,16.4-3.6,24.3,12.2c9.7,20.1,20.7,40.7,25.5,70.5c3.6,19.5,3,38.9-0.6,58.4
		c-3,20.7-9.7,32.2-17.6,51.7C1327.8,458.9,1313.2,436.5,1316.2,416.4z"/>
	<path class="st7" d="M1302.2,845.4c-8.5,6.7-21.3,1.8-21.9,2.4c-9.7,8.5-20.1,16.4-30.4,23.1c-5.5,4.3-13.4,9.7-12.2,17.6
		c2.4,14,24.9,9.7,33.4,5.5c8.5-4.3,15.2-11.6,23.7-16.4c6.1-3.6,11.6-5.5,12.2-12.8C1307.7,860.6,1303.4,844.8,1302.2,845.4z"/>
	<path class="st8" d="M1307.1,863.8c-1.2,6.7-6.7,9.1-12.2,12.2c-7.9,4.9-15.2,12.2-23.7,16.4c-8.5,4.3-27.4,7.9-32.8-2.4
		c3,13.4,24.9,9.1,33.4,4.9c8.5-4.3,15.2-11.6,23.7-16.4c6.1-3.6,11.6-5.5,12.2-12.8C1307.1,865.7,1307.1,865.1,1307.1,863.8z"/>
	<path class="st7" d="M1242.2,834.3c-7.9,6.1-18.8,3-19.5,3c-9.1,7.9-18.2,14.6-28,21.3c-4.9,3.6-12.2,8.5-10.9,15.8
		c2.4,12.8,23.1,9.1,31,4.9c7.9-4.3,14-10.3,21.3-15.2c5.5-3,10.3-4.9,11.6-11.6C1247.7,849.5,1244.1,834.3,1242.2,834.3z"/>
	<path class="st8" d="M1248.1,851.7c-1.2,6.1-6.1,7.9-11.6,11.6c-7.3,4.9-14,11.6-21.9,15.2s-24.9,7.3-30.4-1.8
		c3,12.2,23.1,8.5,30.4,4.9c7.3-3.6,14-10.3,21.3-15.2c5.5-3,10.3-4.9,11.6-11.6C1248.1,853.5,1248.1,852.9,1248.1,851.7z"/>
	<path class="st5" d="M1198.3,447.4c3.6-28.6,14.6-70.5,14.6-70.5c9.7,4.9,20.7,7.3,32.2,7.9c16.4,0,32.2-1.8,48-4.9
		c5.5,9.1,10.9,17.6,17,26.1c8.5,11.6,24.3,36.5,20.7,80.9c-2.4,28.6-18.8,150.8-18.8,150.8c6.1,20.7,9.7,41.9,9.7,63.2
		c-1.2,25.5-4.9,51.1-10.3,76l-9.7,69.3c0,0-12.8,9.1-21.9,2.4l1.2-68.1c-1.2-16.4-3-41.3-3.6-56.5c-1.8-25.5-6.1-66.3-7.9-76
		s-4.9-28-6.1-47.4c-1.2-19.5-9.1-120.4-9.1-120.4l-1.2,18.8c0,0-1.2,30.4-5.5,68.1s-6.1,54.7-6.1,54.7c4.3,7.3,7.3,15.8,8.5,24.3
		c0.6,7.9,10.3,73,4.3,105.8l-11.6,83.3c-6.1,4.3-13.4,4.9-20.1,2.4l-6.7-83.9c-4.3-32.2-14-99.7-15.2-108.8
		c-3-17.6-4.9-35.9-5.5-54.1C1194,555.6,1194.6,476.6,1198.3,447.4z"/>
	<path class="st9" d="M1293.1,369.6l24.9,49.9c0,0,37.7,55.3-1.2,197.6l7.3,43.8c0,0-74.2,47.4-124,0c0,0-17-131.3-7.9-192.1
		c4.9-34.7,12.8-69.3,23.1-102.7c0,0,12.2,13.4,74.8,4.9"/>
	<path class="st10" d="M1337.5,301.5c0,0-17,17-37.7,15.2l-9.7-33.4c0,0-6.1-17.6,8.5-24.9C1313.2,251,1329,267.4,1337.5,301.5z"/>
	<path class="st10" d="M1235.3,240.1c0,0-19.5-6.1-40.7,37.7l7.9,4.9C1212.2,267.4,1223.2,252.9,1235.3,240.1z"/>
	<path class="st11" d="M1207.8,722"/>
	<path class="st12" d="M1288,160.1"/>
</g>
<path class="st1" d="M1066.3,1044.4c-9.7-8.5-20.1-16.4-31-22.5c-84.5-48.6-221.3-48.6-305.2,0c-12.8,7.3-24.9,16.4-35.3,26.7
	c-46.2,47.4-34.7,108.8,35.3,148.9c83.9,48.6,221.3,48.6,305.2,0C1107.7,1156.9,1118,1092.4,1066.3,1044.4z M1008.6,1182.4
	c-69.3,40.1-182.4,40.1-251.7,0c-48.6-28-63.2-68.7-43.8-104c10.3-17.6,25.5-31.6,43.8-41.3c69.3-40.1,182.4-40.1,251.7,0
	c18.2,9.7,32.8,23.7,43.2,41.3l0,0C1071.8,1114.3,1057.2,1154.4,1008.6,1182.4z"/>
<path class="st13" d="M1051.7,1079L1051.7,1079c-10.3-17.6-25.5-31.6-43.2-41.3c-69.3-40.1-182.4-40.1-251.7,0
	c-18.2,9.7-32.8,23.7-43.8,41.3l-18.8-29.8l-3.6-5.5l24.3-57.8l84.5-46.8l157.5,3l107,62c0,0,1.8,20.1,2.4,40.1
	C1066.3,1069.3,1063.9,1093.6,1051.7,1079z"/>
<path class="st1" d="M666.9,1109.4v-65.7l32.8,55.3L666.9,1109.4z"/>
<path class="st1" d="M1098.6,1109.4v-65.7l-29.2,32.8L1098.6,1109.4z"/>
<path class="st14" d="M1063.9,1076.6c0,57.1-80.3,103.4-179.3,103.4l0,0c-99,0-179.3-46.3-179.3-103.4l0,0
	c0-57.1,80.3-103.4,179.3-103.4l0,0C983.6,973.3,1063.9,1019.5,1063.9,1076.6L1063.9,1076.6z"/>
<path class="st1" d="M683.3,1121c0,0,27.4,108.8,234.1,103.4c142.9,0,161.7-122.8,158.1-140.4c-29.8,40.7-76,66.9-126.5,70.5
	c-86.9,7.9-151.4,6.7-186-9.7c-34.7-16.4-79.6-60.2-79.6-60.2V1121z"/>
<path class="st15" d="M730.1,1135.6c-83.9-48.6-83.9-127.7,0-176.3c83.9-48.6,221.3-48.6,305.2,0c83.9,48.6,83.9,127.7,0,176.3
	S814,1184.2,730.1,1135.6z M1008.6,974.5c-69.3-40.1-182.4-40.1-251.7,0c-69.3,40.1-69.3,105.2,0,145.3s182.4,40.1,251.7,0
	C1077.9,1079.7,1077.9,1014.6,1008.6,974.5z"/>
<path class="st16" d="M445.4,1340.2c11.4,19.8,11.5,41.1,0.1,47.7l0,0c-11.3,6.5-29.8-4.2-41.2-23.9l0,0
	c-11.4-19.8-11.5-41.1-0.1-47.7l0,0C415.5,1309.7,434,1320.4,445.4,1340.2L445.4,1340.2z"/>
<path class="st1" d="M752,1162.9l-90.6,52.3l-28-15.8l90.6-52.3L752,1162.9z"/>
<path class="st13" d="M752,1195.2l-90.6,52.9v-32.8l90.6-52.3V1195.2z"/>
<path class="st17" d="M679.7,1238.3c-1.2-20.7-12.2-38.9-29.2-50.5c-6.1-4.3-13.4-4.9-20.1-2.4l0,0l-226.2,130.1l41.3,70.5
	l223.1-128.9C675.4,1256,679.7,1248.7,679.7,1238.3z"/>
<path class="st18" d="M445.4,1340.2c11.4,19.8,11.5,41.1,0.1,47.7l0,0c-11.3,6.5-29.8-4.2-41.2-23.9l0,0
	c-11.4-19.8-11.5-41.1-0.1-47.7l0,0C415.5,1309.7,434,1320.4,445.4,1340.2L445.4,1340.2z"/>
<g id="Men_1">
	<path class="st0" d="M1197.6,1643.8c0,44-61.8,79.6-138,79.6l0,0c-76.2,0-138-35.7-138-79.6l0,0c0-44,61.8-79.6,138-79.6l0,0
		C1135.9,1564.2,1197.6,1599.8,1197.6,1643.8L1197.6,1643.8z"/>
	<path id="_Контур_54" class="st5" d="M1156.3,1071.8c1.2,12.8,17,68.1,13.4,86.9s-55.3,50.5-55.3,50.5l-7.3-32.2l29.2-28.6
		l-7.9-53.5L1156.3,1071.8z"/>
	<path id="_Контур_55" class="st10" d="M1115.6,1017c10.3-4.9,23.1-1.2,29.2,9.1c7.9,12.8,15.8,56.5,16.4,63.8
		c0,0-10.9,15.2-26.7,12.2L1115.6,1017z"/>
	<path class="st19" d="M1056,1634.1c-11.6,3-23.7,1.8-34-4.3c-7.9,0-52.3-18.8-58.4-3c-5.5,14,14,26.7,24.3,29.2
		c22.5,5.5,38.9,16.4,48,18.2c6.7,1.2,15.2,2.4,20.7-3C1062.7,1665.7,1062.1,1642,1056,1634.1z"/>
	<path class="st20" d="M1035.9,1670.6c-9.1-1.8-25.5-12.8-48-18.2c-8.5-1.8-23.1-11.6-24.9-22.5c-1.8,12.8,15.2,24.3,24.9,26.7
		c22.5,5.5,38.9,16.4,48,18.2c6.7,1.2,15.2,2.4,20.7-3c1.2-1.8,2.4-3.6,3-5.5C1053,1671.2,1043.8,1673,1035.9,1670.6z"/>
	<path class="st19" d="M1127.7,1601.9c-11.6,3-23.7,1.8-34-4.3c-7.9,0-52.3-18.8-58.4-3c-5.5,14,14,26.7,24.3,29.2
		c22.5,5.5,38.9,16.4,48,18.2c6.7,1.2,15.2,2.4,20.7-3C1134.4,1633.5,1133.8,1609.8,1127.7,1601.9z"/>
	<path class="st20" d="M1107.7,1638.4c-9.1-1.8-25.5-12.8-48-18.2c-8.5-1.8-23.1-11.6-24.9-22.5c-1.8,12.8,15.2,24.3,24.9,26.7
		c22.5,5.5,38.9,16.4,48,18.2c6.7,1.2,15.2,2.4,20.7-3c1.2-1.8,2.4-3.6,3-5.5C1124.7,1639.6,1115.6,1640.8,1107.7,1638.4z"/>
	<path id="_Контур_56" class="st21" d="M1129,1481.5c-1.8-16.4-5.5-32.8-10.3-48.6c0,0,3-41.9,4.9-81.5
		c1.8-45,17.6-84.5,4.9-120.4l-138.6,31c0,0,8.5,179.3,10.3,201.2c1.2,17,3,33.4,6.1,50.5c6.1,34.7,16.4,117.9,16.4,117.9
		c10.3,4.9,22.5,6.1,34,3.6c0,0-1.2-104.6-1.8-130.1c-1.2-30.4-1.8-28-1.8-28l4.9-76l3-37.7c0,0,3.6,28,6.1,52.9
		c2.4,21.9,7.3,41.3,13.4,81.5c4.9,35.3,13.4,105.2,13.4,105.2c14.6,8.5,34.7,1.2,34.7,1.2S1132.6,1511.9,1129,1481.5z"/>
	<path id="_Контур_57" class="st5" d="M1108.3,1017.6c-10.3,0.6-18.2,3-20.1,0c-1.2-5.5-1.8-10.9-2.4-16.4
		c1.2-3,2.4-6.1,2.4-6.1c13.4-7.9,17.6-22.5,19.5-39.5c3-28.6-12.2-53.5-41.3-56.5c-26.7-3-46.8,15.8-51.7,41.9
		c-3,12.8-8.5,37.1-0.6,57.8c4.3,11.6,9.7,21.3,15.2,23.1c5.5,0,10.3-0.6,15.8-1.2l0,0c0,0,1.2,7.9,2.4,12.8c1.2,4.9,0.6,7.9-9.7,14
		s15.2,18.8,32.2,17.6c17-1.2,35.3-11.6,40.7-21.9C1116.2,1031.6,1115.6,1017.6,1108.3,1017.6z"/>
	<path id="_Контур_58" class="st6" d="M1093.1,1019.5c3,7.3-4.9,16.4-24.3,22.5c-19.5,6.1-21.9-1.8-21.9-1.8
		c-13.4,6.1-26.1,12.8-38.9,20.1c-12.2,8.5-17,32.2-18.8,73c-1.8,46.8-1.8,116.7-0.6,128.9c0,0,22.5,21.9,51.1,20.1
		s76.6-27.4,88.2-46.8c0-41.3-5.5-48,1.8-71.7c15.2-54.7,23.1-76.6,15.8-113.1c-6.1-29.8-14.6-33.4-26.7-33.4
		C1110.7,1017,1101.6,1018.3,1093.1,1019.5z"/>
	<path id="_Контур_59" class="st5" d="M944.7,1172.1c23.7,6.1,29.2-9.1,32.2-21.3c7.3-29.8,11.6-56.5,17-73
		c6.7-20.1,13.4-23.1,23.1-26.7c11.6-4.9,21.3,4.9,17,30.4c-4.9,29.2-11.6,57.8-21.3,85.7c-3,9.1-9.1,25.5-19.5,33.4
		c-12.2,9.7-30.4,9.1-57.8,2.4c-11.6-3-24.3-9.7-46.8-20.1c-6.1-3-10.3-4.9-21.9-9.7c-11.6-5.5-21.3-12.8-29.2-23.1
		c-6.1-8.5-6.7-12.8-5.5-14.6c1.2-1.8,4.3-1.8,7.3,1.8c4.9,6.1,10.3,11.6,17,15.8c0,0-7.3-7.9-11.6-12.8c-3.6-4.3-6.7-9.1-9.1-14.6
		c-2.4-4.9,2.4-12.2,5.5-8.5s4.9,7.3,10.9,14.6c3,3.6,6.7,7.3,10.9,10.3c-3.6-4.9-7.3-10.3-9.7-15.8c-2.4-4.3-3.6-9.7-3.6-14.6
		c0-2.4,3.6-6.1,7.3-0.6c3.6,6.7,7.9,13.4,12.8,18.8c5.5,5.5,9.7,8.5,9.7,7.3c0-1.2-3-4.9-4.9-10.9s0-13.4,3.6-14
		c3.6-0.6,3-0.6,5.5,5.5c3.6,6.1,7.3,12.8,10.9,19.5c1.8,6.1,4.9,12.2,9.7,16.4C910.1,1159.3,922.9,1166.6,944.7,1172.1z"/>
	<path id="_Контур_60" class="st10" d="M1025.6,1046.8c-15.8-2.4-26.7,4.9-33.4,28.6c-6.7,23.7-11.6,43.2-11.6,43.2
		c6.1,9.1,15.8,15.2,26.1,17.6c18.8,4.3,25.5-4.3,25.5-4.3s5.5-24.9,8.5-41.9C1043.8,1073,1045.1,1049.9,1025.6,1046.8z"/>
	<path class="st19" d="M1015.9,937.4c0,0-24.3-37.7,28.6-45c38.3-5.5,63.2,19.5,66.3,46.2c3,25.5-12.8,52.3-24.3,63.2
		c-10.9,3-23.1,1.2-33.4-4.3c-0.6-6.7-0.6-14-0.6-21.3C1052.4,976.3,1071.2,936.8,1015.9,937.4z"/>
</g>
</svg>
