<?xml version="1.0" encoding="utf-8"?>
<!-- Generator: Adobe Illustrator 24.1.3, SVG Export Plug-In . SVG Version: 6.00 Build 0)  -->
<svg version="1.1" id="master-artboard" xmlns="http://www.w3.org/2000/svg" xmlns:xlink="http://www.w3.org/1999/xlink" x="0px"
	 y="0px" viewBox="0 0 837.8 630.7" style="enable-background:new 0 0 837.8 630.7;" xml:space="preserve">
<style type="text/css">
	.st0{fill:#FFFFFF;fill-opacity:0;}
	.st1{fill:#0066CC;}
</style>
<rect id="ee-background" y="0" class="st0" width="837.8" height="630.7"/>
<g transform="matrix(1.6333332061767578, 0, 0, 1.6333332061767578, -101.70536804199219, -161.41882157325745)">
	<g transform="translate(300,300)">
		<path class="st1" d="M203.2-131c42.3,30.2,59.1,97.8,35.2,141.5c-23.9,43.6-88.6,63.5-130.7,86.8c-42.3,23.3-62.2,50.2-91.9,60.3
			c-29.9,10-69.9,3.3-105-20s-65.5-63.4-88.3-126.1c-22.7-62.7-38-148.2-2.9-178.5c35.2-30.3,120.7-5.2,197.3,3.7
			C93.4-154.1,161.1-161.3,203.2-131z"/>
	</g>
</g>
</svg>
