<?xml version="1.0" encoding="utf-8"?>
<!-- Generator: Adobe Illustrator 24.1.3, SVG Export Plug-In . SVG Version: 6.00 Build 0)  -->
<svg version="1.1" id="master-artboard" xmlns="http://www.w3.org/2000/svg" xmlns:xlink="http://www.w3.org/1999/xlink" x="0px"
	 y="0px" viewBox="0 0 1472.4 1803.7" style="enable-background:new 0 0 1472.4 1803.7;" xml:space="preserve">
<style type="text/css">
	.st0{fill:#FFFFFF;fill-opacity:0;}
	.st1{fill:#B1B4C4;}
	.st2{fill:#616E84;}
	.st3{fill:#20232D;}
	.st4{fill:#FFFFFF;}
	.st5{fill:#2B303F;}
	.st6{opacity:0.1;fill:#FFFFFF;enable-background:new    ;}
	.st7{fill:#757B89;}
	.st8{fill:#E9EAF2;}
	.st9{fill:#CED0DB;}
	.st10{fill:#2B2A30;}
	.st11{fill:#FFCEA9;}
	.st12{fill:#F4F4F4;}
	.st13{fill:#0558AA;}
	.st14{opacity:0.1;enable-background:new    ;}
</style>
<g>
	<rect id="ee-background" y="0" class="st0" width="1472.4" height="1803.7"/>
	<g id="Слой_2">
		<g id="Слой_1-2">
			<path class="st1" d="M1025.2,1746.6l-458.9-265c-38.7-22.5-70.2-82.5-70.2-134.4V67.5c0-51.9,31.5-75.7,70.2-53.2l458.9,265
				c38.7,22.5,70.2,82.5,70.2,134.4v1279.8C1095.4,1745.3,1063.9,1769.1,1025.2,1746.6z"/>
			<path class="st1" d="M1032.9,1770l36.6-18.7l-34.9-59.5L1032.9,1770z"/>
			<path class="st1" d="M488.9,27.1l33.2-17.4L515.7,59L488.9,27.1z"/>
			<path class="st2" d="M995.9,1761.5l-458.9-265c-38.7-22.5-70.2-82.5-70.2-134.4V81.9c0-51.9,31.5-75.7,70.2-53.2l458.9,265
				c38.7,22.5,70.2,82.5,70.2,134.4v1279.8C1066.5,1760.2,1034.6,1783.6,995.9,1761.5z"/>
			<path class="st3" d="M1061.4,431.5v1279.8c0,51.9-31.5,75.7-70.2,53.2l-179.9-103.8l-55.7-32.3l-222.9-128.9
				c-39.6-22.1-71-82.5-71-134.4V85.3c0-51.9,31.5-75.7,70.6-53.2l458.9,265C1029.9,319.7,1061.4,379.6,1061.4,431.5z"/>
			<path class="st4" d="M1028.2,418.3v1246.6c0,31.5-22.1,44.2-49.3,28.5l-143.3-82.5l-12.8-7.2l-4.3-2.6l-31-17.9l-89.7-51.9l0,0
				l-37.4-21.3l-14.9-8.5l-101.2-59.1c-27.2-15.7-49.3-54-49.3-85.5V110.4c0-31.5,22.1-44.2,49.3-28.5l179.1,103.4v0.4
				c0,24.7,17,54,38.3,66.3c21.3,12.3,38.3,2.1,38.3-22.1v-0.4l179.5,103.8C1006.5,349,1028.2,387.3,1028.2,418.3z"/>
			<path class="st5" d="M771.9,215.9c5.6,9.8,5.6,20.3-0.1,23.6l0,0c-5.7,3.3-14.9-2-20.5-11.7l0,0c-5.6-9.8-5.6-20.3,0.1-23.6l0,0
				C757.1,200.9,766.3,206.2,771.9,215.9L771.9,215.9z"/>
			<path class="st6" d="M761.5,228.7c-3.8-2.6-6-6.4-6-10.6c0-3.8,2.6-5.5,6-3.4c3.8,2.1,6,6.4,6.4,10.6
				C767.9,229.1,764.9,230.8,761.5,228.7z"/>
			<path class="st7" d="M1080.1,599.9L1080.1,599.9c-3.8,2.1-6.8,0-6.8-5.1v-54.4c0-5.1,2.6-9.8,6.8-12.8l0,0c3.8-2.1,6.8,0,6.8,5.1
				v54.4C1086.5,592.3,1084.4,597,1080.1,599.9z"/>
			<path class="st7" d="M1080.1,689.3L1080.1,689.3c-3.8,2.1-6.8,0-6.8-5.1v-54.4c0-5.1,2.6-9.8,6.8-13.2l0,0c3.8-2.1,6.8,0,6.8,5.1
				v54.4C1086.9,681.6,1084.4,686.3,1080.1,689.3z"/>
			<path class="st8" d="M942.3,1587.1l-361.1-208.4c-18.7-10.6-34-40-34-64.6V643.8c0-25.1,15.3-36.6,34-25.5l361.1,208.4
				c18.7,11.1,34,40,34,65.1V1562C976.3,1586.2,961,1597.7,942.3,1587.1z"/>
			<path class="st9" d="M720.1,798.2c26.5,46,26.6,95.6,0.2,110.9l0,0c-26.4,15.3-69.4-9.6-95.9-55.6l0,0
				c-26.5-46-26.6-95.6-0.2-110.9l0,0C650.6,727.3,693.6,752.2,720.1,798.2L720.1,798.2z"/>
			<path class="st9" d="M921,960.2l-139.5-80.4v-32.7L921,927.4V960.2z"/>
			<path class="st9" d="M888.7,1000.6l-107.2-62.1v-32.7l107.2,62.1V1000.6z"/>
			<path class="st9" d="M921,1148.6L604.6,966.1v-32.7L921,1116.3V1148.6z"/>
			<path class="st9" d="M847.9,1165.2l-243.3-140.4v-32.7l243.3,140.8V1165.2z"/>
			<path class="st9" d="M919.8,1265.6l-316.4-182.5v-32.7l316.4,182.5L919.8,1265.6L919.8,1265.6z"/>
			<path class="st9" d="M847,1282.1l-243.7-140.4V1109L847,1249.8V1282.1z"/>
			<path class="st9" d="M919.8,1383.4l-316.4-182.9v-32.7l316.4,182.9L919.8,1383.4L919.8,1383.4z"/>
			<path class="st9" d="M917.2,1499.1l-316.4-182.5v-32.7l316.4,182.5L917.2,1499.1L917.2,1499.1z"/>
			<path class="st9" d="M847,1400l-243.7-140.8v-32.3L847,1367.2V1400z"/>
			<g id="Girl_14">
				<path id="_Контур_" class="st10" d="M708.8,437.1c8.9-14.5,77-23.8,99.1,34c8.5,21.7,7.2,77.8,14.5,112.7
					c7.2,34.9,23.8,54.9,29.8,83.4s-3.8,76.1-72.3,84.6S658.6,736,642.5,714.4c-16.2-21.7-16.6-68.5,0.4-93.1
					c17-24.7,29.8-45.1,29.3-77.8L708.8,437.1z"/>
				<path id="_Контур_2" class="st10" d="M753.9,427.3c0,0-51-14.9-82.1,12.8c-28.5,25.1-25.9,59.5-21.7,75.7
					c4.3,16.2,12.3,38.3,25.1,39.6C688,556.6,753.9,427.3,753.9,427.3z"/>
				<path id="_Контур_3" class="st11" d="M773.5,566.8c0,0-3.4,57-2.1,61.2s22.5,8.1,28.5,13.2c6,5.1-31,62.9-49.8,71.5
					c-18.7,8.5-77-13.2-81.2-42.5c-3.8-26.8,16.6-47.2,24.7-54.4c5.5-0.4,10.6-0.9,16.2-0.4l1.7-27.6
					C736.5,579.5,773.5,566.8,773.5,566.8z"/>
				<path class="st11" d="M635.2,674.4c-0.4-1.7-8.5,3-8.5,3s-4.3,146.3-11.1,159.5l0,0c-18.3,31-66.8,83.8-67.6,89.7
					c-3.4,17.9,6.8,1.7,23.4,0c9.4-1.3,64.2-56.6,76.6-69.3l0.9,0.4c0-0.4,0-0.9,0-1.3l1.7-1.7c0.4-3.8,0.4-8.1,0.4-11.9
					C673.5,683.7,645.4,673.1,635.2,674.4z"/>
				<path class="st4" d="M622.9,696.9l-3,70.6l-4.7,55.7c0,0,0.9,7.7-7.2,20.4c-8.1,12.8-51.9,67.2-51.9,67.2l19.6,16.6l45.1-37
					l29.8-199l-15.7-19.6L622.9,696.9z"/>
				<path id="_Контур_4" class="st12" d="M781.1,633.5c16.2,2.6,34.5,11.1,37,19.6c3,10.2,9.4,58.7-4.7,95.3
					c-14,36.6-23.4,60-31,75.7c0,0-69.3,29.8-125-5.1c0,0-3.8-39.1-4.3-60.4c-51.5-45.1-7.7-100.4,36.2-143.8
					c5.1-0.4,10.6-0.4,15.7-0.4c0,0-39.1,45.9-11.9,72.3C750.9,670.1,762.4,643.8,781.1,633.5z"/>
				<path id="_Контур_5" class="st11" d="M666.7,496.2L666.7,496.2c6-36.6,32.3-64.2,70.2-62.1c40,2.1,70.6,36.6,68.5,76.6
					c-1.3,22.5-13.2,43.4-31.9,56.1c-1.3,5.5-3.4,11.1-6,16.2c-13.2,15.7-48.9,25.5-60.8,25.5c-10.2,0-18.7-9.4-28.5-25.1
					C658.6,550.6,663.7,514,666.7,496.2z"/>
				<path class="st10" d="M748.4,434.5c26.4,5.1,48.5,12.8,55.3,38.7c5.1,17.9,11.5,52.3,5.1,66.3l-3.8,10.2l-32,16.6
					c0,0-14.9-12.3-10.2-48.9c0-5.1-1.7-9.8-4.7-14c-2.1-3.4-3.4-7.2-4.3-11.1c-3.4-10.2-11.5-17-20.8-22.5
					c-23.8-13.6-58.7-1.7-63.8,3C685.8,440,717.7,428.5,748.4,434.5z"/>
				<path class="st11" d="M842.4,1014.6c-4.3,46.4-30.2,242.9-30.2,242.9c10.2,33.2,15.3,67.6,15.7,102.1
					c0.4,28.5-7.2,77-15.7,122.1l-14.9,106.8L762,1568l1.3-80c-1.7-26.8-4.3-65.9-6.4-91.4c-2.6-40.8-10.2-106.3-12.3-122.5
					s-7.2-44.7-9.8-76.6s-14.5-193.9-14.5-193.9l-1.7,30.2c0,0-1.7,49.3-8.5,109.7c-6.8,60.4-9.8,87.6-9.8,87.6s12.3,22.5,14,39.1
					c1.3,13.2,16.2,117,7.2,169.7l-13.2,96.1l-42.5-24.2l-5.5-68.5c-7.2-51.5-22.5-160.8-25.1-174.8c-3-18.7-5.5-27.6-9.4-86.8
					c-3.8-59.1-2.1-186.3,3.8-232.2c6-45.9,23-113.6,23-113.6c16.2,7.7,33.6,11.9,51.5,12.8c29.8,1.7,77.8-7.7,77.8-7.7
					c8.5,14.5,17.4,28.9,27.2,42.1C822.8,903.2,848.7,943.6,842.4,1014.6z"/>
				<path class="st13" d="M782.4,824.1l40,80c0,0,60.8,88.9-2.1,317.7l11.9,70.6c0,0-119.1,76.6-199,0c0,0-27.6-211.4-12.8-308.8
					c8.1-56.1,20.4-111.4,37-165.4c0,0,19.6,21.7,119.9,7.2"/>
				<path class="st4" d="M689.2,615.3c0,0-59.1,9.8-65.9,81.7l13.6-13.6C636.5,683.3,669.7,633.5,689.2,615.3z"/>
				<path class="st4" d="M705,615.3c-15.3,29.3-55.3,77.4-43.8,129.3c14.9,69.3-13.6,484.4-13.6,484.4s-34-21.7-34-38.7
					s12.8-465.3,12.8-486.6s37.4-59.1,62.5-88.5c6.8-2.6,13.6-3.4,20.8-3.4c0,1.7,0,1.7,0,3.4C708,615.3,707.1,615.3,705,615.3z"/>
				<path class="st12" d="M442.1,995.5l136.1-79.1L676,973l-136,79.1L442.1,995.5z"/>
				<path class="st11" d="M560.8,922.3c-8.5,2.1-17,2.6-24.2,8.1c-2.6,2.6-5.5,4.3-8.5,6.4c-1.3,0.9-2.6,1.7-4.3,2.1
					c-2.1,0.9-3.8,2.1-5.5,3.8c-1.7,2.1-2.6,4.7-2.6,7.7c-0.9,3.4-0.9,6.4-0.4,9.8c1.3,4.7,6.4,4.7,8.9,1.3c1.3-1.7,2.1-3.8,2.1-6
					c0-4.3,2.1-8.1,6-10.2l32.3-20.4C564.2,922.8,562.5,921.9,560.8,922.3z"/>
				<path class="st4" d="M824.9,742c0,0-1.3,122.1,3.4,161.6c4.7,39.6,60.8,155.2,11.1,312.2c-7.2,8.5-14,25.5-76.6,33.2
					c-37.4,0-51-5.5-51-5.5s14.9-263.7-6-495.1c0-63.8,54.9-56.6,65.1-127.2c48.5,22.5,48.5,29.8,48.5,29.8L824.9,742z"/>
				<path class="st14" d="M800.7,649.7c-26.8,3-30.2,36.6-30.2,36.6l-1.3,51.9c0,0,3,65.9,10.6,86.3L664.1,904l25.1,29.3
					c0,0,122.1-56.6,131.8-65.5c9.8-8.9,0-112.3,1.7-142.5C829.2,669.3,827.5,646.7,800.7,649.7z"/>
				<path class="st11" d="M819.8,678.2c-4.7-18.7-19.1-12.3-31.5-23.4c-28.9,40.8-9.8,151.8-6,163.7l-111,71l0,0
					c-1.7,1.3-5.5,3.4-7.7,4.7c-10.2,6-29.3,16.6-41.3,17.9c-11.1,1.3-17,17-28.9,18.3c-2.6,0-4.7,2.1-4.3,4.7c0,1.3,0.4,2.1,1.3,3
					c4.7,4.7,17.4,0.9,25.9-9.4c0,0.4,0,0.4,0,0.9c0,4.3,3,7.7,6.8,8.5c0,0.9,0,1.3,0.4,2.1c1.3,2.6,3.8,4.3,6.8,4.7l0,0
					c1.3,3.8,5.1,6.4,8.9,6c2.6,0,5.1-1.3,6.8-3c9.4-3.8,17.9-9.8,24.2-17.4c5.5-6,11.9-11.5,17.9-16.6
					c30.2-13.2,120.8-51.5,124.6-57C819.8,848.3,826.2,704.6,819.8,678.2z"/>
				<path class="st4" d="M796,640.8c-26.8,3-30.2,36.6-30.2,36.6l-1.3,51.9c0,0,3,65.9,10.6,86.3l-115.7,79.5l25.1,29.3
					c0,0,122.1-56.6,131.8-65.5c9.8-8.9,11.9-100.8,13.2-130.6C836.4,671.8,822.8,637.8,796,640.8z"/>
			</g>
			<path class="st9" d="M616.7,238.4"/>
		</g>
	</g>
	
		<image style="overflow:visible;enable-background:new    ;" width="400" height="400" xlink:href="../../../asw/logo.png"  transform="matrix(0.1247 0 0 0.1321 720.5106 727.9324)">
	</image>
</g>
</svg>
