<?xml version="1.0" encoding="utf-8"?>
<!-- Generator: Adobe Illustrator 24.1.3, SVG Export Plug-In . SVG Version: 6.00 Build 0)  -->
<svg version="1.1" id="master-artboard" xmlns="http://www.w3.org/2000/svg" xmlns:xlink="http://www.w3.org/1999/xlink" x="0px"
	 y="0px" viewBox="0 0 1472.4 1803.7" style="enable-background:new 0 0 1472.4 1803.7;" xml:space="preserve">
<style type="text/css">
	.st0{fill:#FFFFFF;fill-opacity:0;}
	.st1{opacity:0.4;fill:#D6D8E5;enable-background:new    ;}
	.st2{fill:#FFCEA9;}
	.st3{fill:#EDEDED;}
	.st4{fill:#222020;}
	.st5{fill:#999996;}
	.st6{fill:#999998;}
	.st7{fill:#0558AA;}
	.st8{fill:#F4F4F4;}
	.st9{fill:#4E0A05;}
</style>
<rect id="ee-background" y="0" class="st0" width="1472.4" height="1803.7"/>
<g transform="matrix(5.805173510153896, 0, 0, 5.805173510153896, 325.50431107067436, 0)">
	<g id="Men_2">
		<path class="st1" d="M55.9,280.9c0,15.8-22.2,28.6-49.5,28.6l0,0c-27.3,0-49.5-12.8-49.5-28.6l0,0c0-15.8,22.2-28.6,49.5-28.6l0,0
			C33.8,252.3,55.9,265.1,55.9,280.9L55.9,280.9z"/>
		<path id="_Контур_6" class="st2" d="M-28.9,69.1c-0.6,4.8-6.3,25.6-5.1,32.7c1.2,7.1,20.8,19,20.8,19l2.7-12.2L-21.2,98
			l2.9-20.1L-28.9,69.1z"/>
		<path id="_Контур_7" class="st3" d="M-13.7,48.7c-2.8-1.2-8-1.5-10.9,3.3s-5.9,21.2-6.1,24c0,0,4.1,5.6,10.1,4.7L-13.7,48.7
			z"/>
		<path class="st4" d="M8.7,280c4.3,1.2,8.8,0.6,12.7-1.5c3.1,0.1,19.6-7,21.9-1c2,5.2-5.2,10.1-9.1,11c-8.4,2-14.6,6.2-17.9,6.9
			c-2.5,0.5-5.8,0.9-7.8-1.1C6.1,291.9,6.3,283.1,8.7,280z"/>
		<path class="st5" d="M16.3,293.9c3.4-0.7,9.6-4.9,17.9-6.9c3.2-0.8,8.8-4.3,9.3-8.5c0.7,4.8-5.7,9.1-9.3,9.9
			c-8.4,2-14.6,6.2-17.9,6.9c-2.5,0.5-5.8,0.9-7.8-1.1c-0.5-0.6-0.9-1.3-1.1-2C10.4,294.7,13.8,294.4,16.3,293.9z"/>
		<path class="st4" d="M-18.2,267.9c4.3,1.2,8.8,0.6,12.7-1.5c3.1,0.1,19.6-7,21.9-1c2,5.2-5.2,10.1-9.1,11
			c-8.4,2-14.6,6.2-17.9,6.9c-2.5,0.5-5.8,0.9-7.8-1.1C-20.8,279.8-20.6,271.1-18.2,267.9z"/>
		<path class="st6" d="M-10.6,281.8c3.4-0.7,9.6-4.9,17.9-6.9c3.2-0.8,8.8-4.3,9.3-8.5c0.8,4.8-5.7,9.1-9.3,9.9
			c-8.4,2-14.6,6.2-17.9,6.9c-2.5,0.5-5.8,0.9-7.8-1.1c-0.5-0.6-0.9-1.3-1.1-2C-16.6,282.6-13.1,282.4-10.6,281.8z"/>
		<path id="_Контур_8" class="st7" d="M-18.5,222.9c0.7-6.2,2-12.2,3.8-18.2c0,0-1.1-15.7-1.7-30.5
			c-0.6-16.9-6.5-31.7-1.9-45.2l52,11.6c0,0-3.1,67.3-3.9,75.4c-0.4,6.3-1.2,12.6-2.3,18.9C25.1,248,21.3,279,21.3,279
			c-5.5,3.2-12.7,1.4-12.7,1.4s0.4-39.3,0.8-48.7c0.4-11.5,0.8-10.6,0.8-10.6l-1.7-28.6l-1.1-14.2c0,0-1.4,10.5-2.4,19.8
			c-0.8,8.1-2.8,15.5-5,30.6c-1.9,13.1-5,39.5-5,39.5c-5.5,3.2-13,0.5-13,0.5S-20,234.3-18.5,222.9z"/>
		<path id="_Контур_9" class="st2" d="M-10.9,48.9c4,0.2,6.9,1.2,7.4,0c0.4-2,0.7-4.1,0.9-6.2c-0.5-1.1-0.9-2.4-0.9-2.4
			c-5-3.1-6.6-8.4-7.2-14.7C-11.8,14.9-6,5.6,4.7,4.4c10.1-1,17.5,6,19.4,15.8c1.1,4.8,3.2,13.9,0.3,21.8c-1.6,4.4-3.7,7.9-5.7,8.6
			c-2-0.1-4-0.2-5.9-0.5l0,0c0,0-0.5,3-0.9,4.9s-0.2,2.9,3.6,5.3c3.8,2.4-5.8,7.1-12,6.7s-13.3-4.4-15.2-8.4
			C-13.8,54.1-13.7,48.8-10.9,48.9z"/>
		<path id="_Контур_10" class="st8" d="M-5.2,49.5c-1.1,2.7,1.7,6.1,9.1,8.4s8.1-0.7,8.1-0.7s10.9,5,14.5,7.4
			c4.5,3.1,6.4,12.2,7.1,27.4c0.7,17.7,0.8,43.9,0.2,48.4c0,0-8.4,8.3-19,7.4s-28.7-10.3-33-17.6c0.1-15.5,1.9-18-0.6-26.9
			c-5.7-20.4-8.8-28.8-6-42.4c2.3-11.2,5.5-12.6,9.9-12.5C-11.6,48.8-8.4,49.1-5.2,49.5z"/>
		<path id="_Контур_11" class="st2" d="M50.4,106.8c-8.8,2.2-10.8-3.3-12-7.9c-2.8-11.1-4.3-21.1-6.4-27.4
			c-2.4-7.4-5-8.6-8.6-10c-4.2-1.7-7.9,1.9-6.5,11.3c1.7,11.2,3.9,19,8,32.3c1.1,3.5,3.5,9.6,7.2,12.5c4.5,3.7,11.3,3.5,21.6,0.9
			c4.4-1.1,9.2-3.7,17.5-7.6c2.2-1,4-1.7,8.3-3.7s8.8-5.3,11-8.6s2.5-4.8,2.1-5.5c-0.6-0.9-1.6-0.7-2.8,0.6
			c-1.7,2.3-3.9,4.3-6.3,5.8c0,0,2.8-2.9,4.3-4.7c1.3-1.6,2.5-3.5,3.3-5.4s-0.8-4.5-2.1-3.1s-1.8,2.7-4.1,5.5
			c-1.2,1.4-2.6,2.7-4.1,3.9c1.4-1.9,2.7-3.9,3.8-6c1.4-2.9,1.4-4.4,1.4-5.4s-1.5-2.2-2.8-0.3c-1.2,1.7-2,4.3-4.7,7.2
			c-2,2.1-3.7,3.3-3.8,2.7s1.2-1.7,1.9-4.1s0-5-1.3-5.3s-1.1-0.2-2.2,2.1s-2.7,3.9-4,7.3c-1.1,2.9-1.6,4.1-3.6,6.2
			C63.5,102.1,58.7,104.7,50.4,106.8z"/>
		<path id="_Контур_12" class="st3" d="M20.1,59.9c5.9-0.9,10,1.8,12.6,10.6s4.4,16.2,4.4,16.2c-2.3,3.3-5.8,5.7-9.8,6.5
			c-7,1.7-9.5-1.6-9.5-1.6s-2-9.3-3.2-15.6S12.9,61,20.1,59.9z"/>
		<path class="st9" d="M23.8,18.8c0,0,9.3-14.1-10.8-16.9C-1.4-0.2-10.7,9.1-11.8,19.2c-1,9.6,4.9,19.6,9.2,23.6
			C-0.5,43.6,4,44,9.9,41.3c0.2-2.6,0.3-5.3,0.3-7.9C10.1,33.4,3.1,18.6,23.8,18.8z"/>
	</g>
</g>
</svg>
